<svg width="64" height="64" viewBox="0 0 64 64" fill="none" xmlns="http://www.w3.org/2000/svg">
    <rect width="64" height="64" fill="none" />
    <path d="M4.5 22.5H58.5V48C58.5 50.4853 56.4853 52.5 54 52.5H9C6.51472 52.5 4.5 50.4853 4.5 48V22.5Z" fill="#FFF9E6"
        stroke="#543D1B" />
    <line x1="5.09373" y1="22.9878" x2="7.13679" y2="52.2049" stroke="#543D1B" />
    <line y1="-0.5" x2="29.7854" y2="-0.5" transform="matrix(-0.052336 0.99863 -0.998412 -0.0563293 57.5588 22)"
        stroke="#543D1B" />
    <path
        d="M14.134 29.5C14.5189 30.1667 15.4811 30.1667 15.866 29.5L17.5981 26.5C17.983 25.8333 17.5019 25 16.7321 25H13.2679C12.4981 25 12.017 25.8333 12.4019 26.5L14.134 29.5Z"
        fill="#543D1B" />
    <path
        d="M13 17C13 13.134 16.134 10 20 10H43C46.866 10 50 13.134 50 17H46C46 15.3431 44.6569 14 43 14H20C18.3431 14 17 15.3431 17 17H13ZM48 27H15H48ZM13 27V17C13 13.134 16.134 10 20 10V14C18.3431 14 17 15.3431 17 17V27H13ZM43 10C46.866 10 50 13.134 50 17V27H46V17C46 15.3431 44.6569 14 43 14V10Z"
        fill="#543D1B" />
    <path
        d="M47.134 29.5C47.5189 30.1667 48.4811 30.1667 48.866 29.5L50.5981 26.5C50.983 25.8333 50.5019 25 49.7321 25H46.2679C45.4981 25 45.017 25.8333 45.4019 26.5L47.134 29.5Z"
        fill="#543D1B" />
    <circle cx="15" cy="27" r="1" fill="#F5E9AB" />
    <circle cx="48" cy="27" r="1" fill="#F5E9AB" />
    <rect x="28" y="43" width="8" height="4" rx="2" fill="#FFF3B5" />
    <rect x="28.5" y="43.5" width="7" height="3" rx="1.5" stroke="black" stroke-opacity="0.12" />
</svg>