<?xml version="1.0" encoding="utf-8"?>
<svg version="1.1" id="Layer_1" xmlns="http://www.w3.org/2000/svg" xmlns:xlink="http://www.w3.org/1999/xlink" x="0px" y="0px"
	 viewBox="0 0 100 100" style="enable-background:new 0 0 100 100;" xml:space="preserve">
<style type="text/css">
	.st0{fill:#4567B0;}
	.st1{fill-rule:evenodd;clip-rule:evenodd;fill:#FFFFFF;}
</style>
<rect class="st0" width="100" height="100"/>
<g>
	<path class="st1" d="M46.2,76.8v-24c0.7,0.1,1.3,0.1,2,0.1c3.3,0,6.3-0.9,8.9-2.4v26.4c0,2.3-0.5,3.9-1.5,5c-1,1.1-2.3,1.7-4,1.7
		c-1.6,0-2.9-0.6-3.9-1.7C46.8,80.7,46.2,79.1,46.2,76.8"/>
	<path class="st1" d="M46.3,19.3c6.8-2.4,14.5-2.3,20.3,2.7c1.1,1,2.3,2.3,2.8,3.8c0.6,1.9-2.1-0.2-2.4-0.5c-1.9-1.2-3.8-2.3-5.9-3
		C49.7,18.8,38.9,25.2,32.2,35c-2.8,4.4-4.6,9-6.1,14c-0.2,0.6-0.3,1.3-0.6,1.8c-0.3,0.6-0.1-1.5-0.1-1.6c0.2-2.1,0.7-4.1,1.2-6.1
		C29.6,32.4,36.5,23.4,46.3,19.3"/>
	<path class="st1" d="M55.1,46c-4.1,2.1-9.1,0.5-11.1-3.6c-2.1-4.1-0.5-9.1,3.6-11.1c4.1-2.1,9.1-0.5,11.1,3.6
		C60.9,39,59.2,44,55.1,46"/>
</g>
</svg>
